***************************************************************

[IMG]http://www.hotimg.org/images/67363952943939111394.png[/IMG]

***************************************************************

[img]http://www.imagezon3.com/images/2p3QE.jpg[/img]

***************************************************************

FILM TITLE: The Skin I Live In (2011)  La piel que habito (original title)

***************************************************************

Genre:  Drama | Thriller  

Rated R for disturbing violent content including sexual assault, 
strong sexuality, graphic nudity, drug use and language

Release:  16 September 2011 (Poland)

Director: Pedro Almodóvar

Writer: Pedro Almodóvar (screenplay), Agustín Almodóvar (collaboration)

Stars:  Antonio Banderas, Elena Anaya and Jan Cornet

Country: Spain

Language:  Spanish

Plot:
A brilliant plastic surgeon, haunted by past tragedies, 
creates a type of synthetic skin that withstands any kind of 
damage. His guinea pig: a mysterious and volatile woman who 
holds the key to his obsession.

IMDB Rating: 7.7/10 from 23,653 users   Metascore: 70/100 
 
http://www.imdb.com/title/tt1189073/

****************************************************************

[url=http://www.imagezon3.com/images/uM6dh.png][img]http://www.imagezon3.com/images/thumbs/uM6dh.png[/img][/url]
[url=http://www.imagezon3.com/images/7eIu0.png][img]http://www.imagezon3.com/images/thumbs/7eIu0.png[/img][/url]
[url=http://www.imagezon3.com/images/L421p.png][img]
[url=http://www.imagezon3.com/images/xSKp9.png][img]http://www.imagezon3.com/images/thumbs/xSKp9.png[/img][/url]
[url=http://www.imagezon3.com/images/r0BLW.png][img]http://www.imagezon3.com/images/thumbs/r0BLW.png[/img][/url]

****************************************************************

General
Unique ID                        : 176600337354302142867809924562452658488 (0x84DBFCDFCD6AFB37B68594A59246B938)
Complete name                    : The Skin I Live In 2011 720p BDRip x264 ac3 subs (mkv) [GREYSHADOW].mkv
Format                           : Matroska
Format version                   : Version 2
File size                        : 3.81 GiB
Duration                         : 2h 0mn
Overall bit rate                 : 4540 Kbps
Encoded date                     : UTC 2012-02-26 16:55:16
Writing application              : mkvmerge v5.3.0 ('I could have danced') built on Feb  9 2012 10:38:07
Writing library                  : libebml v1.2.3 + libmatroska v1.3.0

Video
ID                               : 1
Format                           : AVC
Format/Info                      : Advanced Video Codec
Format profile                   : High@L4.1
Format settings, CABAC           : Yes
Format settings, ReFrames        : 9 frames
Muxing mode                      : Header stripping
Codec ID                         : V_MPEG4/ISO/AVC
Duration                         : 2h 0mn
Bit rate                         : 3900 Kbps
Width                            : 1280 pixels
Height                           : 688 pixels
Display aspect ratio             : 1.860
Frame rate                       : 23.976 fps
Color space                      : YUV
Chroma subsampling               : 4:2:0
Bit depth                        : 8 bits
Scan type                        : Progressive
Bits/(Pixel*Frame)               : 0.185
Stream size                      : 3.20 GiB (84%)
Title                            : AVC MPEG4 Video
Writing library                  : x264 core 120 r2164 da19765
Language                         : Spanish
Color primaries                  : BT.709-5, BT.1361, IEC 61966-2-4, SMPTE RP177
Transfer characteristics         : BT.709-5, BT.1361
Matrix coefficients              : BT.709-5, BT.1361, IEC 61966-2-4 709, SMPTE RP177

Audio
ID                               : 2
Format                           : AC-3
Format/Info                      : Audio Coding 3
Mode extension                   : CM (complete main)
Muxing mode                      : Header stripping
Codec ID                         : A_AC3
Duration                         : 2h 0mn
Bit rate mode                    : Constant
Bit rate                         : 640 Kbps
Channel(s)                       : 6 channels
Channel positions                : Front: L C R, Side: L R, LFE
Sampling rate                    : 48.0 KHz
Bit depth                        : 16 bits
Compression mode                 : Lossy
Stream size                      : 551 MiB (14%)
Title                            : AC3 5.1 640 kbps
Language                         : Spanish

Text #1
ID                               : 3
Format                           : UTF-8
Codec ID                         : S_TEXT/UTF8
Codec ID/Info                    : UTF-8 Plain Text
Title                            : English Subtitle sup to srt
Language                         : English

Text #2
ID                               : 4
Format                           : UTF-8
Codec ID                         : S_TEXT/UTF8
Codec ID/Info                    : UTF-8 Plain Text
Title                            : English (Hard Of Hearing) Subtitle sup to srt
Language                         : English

Text #3
ID                               : 5
Format                           : UTF-8
Codec ID                         : S_TEXT/UTF8
Codec ID/Info                    : UTF-8 Plain Text
Title                            : French Subtitle sup to srt
Language                         : French

****************************************************************

Video Source: The Skin I Live In 2011 BluRay 1080p AVC DTS-HD MA5.1-CHDBits (43.08GB)

Thanks: chdbits.org

****************************************************************

I provide a small sample, so please download this to check your 
compatibility first if you are unsure.

****************************************************************

I am providing tutorials here :- 
http://tutorials4all.freeforums.org/index.php?sid=fb109f91dedb2901c4d0b39625c431f7
This is for opening my mkv encodes, remuxing to Bluray for PS3 or mkv or mp4 with 
additional or selected audio or subtitles which I will now start supplying, so if your
fed up finding the right encode to match your player - DO IT YOURSELF - it's simples.

I allow transfer of my encodes to any site, just give me credit (Thanks: GREYSHADOW)

****************************************************************